<svg width="675" height="102" viewBox="0 0 675 102" fill="none" xmlns="http://www.w3.org/2000/svg">
<mask id="mask0" mask-type="alpha" maskUnits="userSpaceOnUse" x="0" y="9" width="670" height="73">
<path d="M13.5415 48.3407C13.1364 39.8663 15.7022 31.4939 20.8954 24.2473C21.4513 23.4717 22.586 23.2987 23.4112 23.7367C24.2854 24.2006 24.6047 25.24 24.0215 26.0566C19.2497 32.7377 16.9057 40.4305 17.2773 48.2017C17.6488 55.9732 20.7202 63.4884 26.1179 69.8343C26.7661 70.5963 26.5633 71.6613 25.7186 72.1931C24.9279 72.6908 23.786 72.584 23.1685 71.8603C17.3031 64.9865 13.9467 56.8148 13.5415 48.3407Z" fill="black" stroke="black"/>
<path d="M1.27092 49.2497C1.0671 43.2104 2.35666 37.2321 4.98169 32.0429C5.36246 31.2902 6.30511 30.975 7.03913 31.5269C7.68889 32.0154 7.81037 32.9273 7.477 33.5885C5.11927 38.2651 3.95395 43.6665 4.13849 49.1345C4.32303 54.6025 5.84852 59.8741 8.51151 64.3093C8.8962 64.95 8.82393 65.8629 8.22531 66.3968C7.91113 66.677 7.49988 66.8007 7.09269 66.731C6.68762 66.6616 6.34483 66.4115 6.13195 66.0581C3.16318 61.1292 1.47473 55.289 1.27092 49.2497Z" fill="black" stroke="black" stroke-width="1.5"/>
<path d="M114.472 48.3213C114.531 39.8374 111.625 31.5768 106.14 24.5484C105.553 23.7961 104.412 23.6696 103.606 24.1409C102.751 24.6402 102.475 25.6917 103.091 26.4838C108.131 32.9645 110.788 40.5551 110.734 48.335C110.68 56.1152 107.918 63.7496 102.784 70.3106C102.168 71.0985 102.414 72.1543 103.279 72.6511C104.09 73.1162 105.226 72.9628 105.814 72.2144C111.393 65.1068 114.413 56.8048 114.472 48.3213Z" fill="black" stroke="black"/>
<path d="M126.769 48.7281C126.726 42.6854 125.194 36.7648 122.359 31.6872C121.948 30.9507 120.993 30.6742 120.282 31.2556C119.653 31.7702 119.569 32.6863 119.929 33.3334C122.476 37.9098 123.86 43.259 123.899 48.73C123.938 54.201 122.629 59.5305 120.15 64.0708C119.792 64.7267 119.901 65.6359 120.521 66.1449C120.846 66.412 121.262 66.5188 121.666 66.4325C122.068 66.3466 122.401 66.0828 122.599 65.721C125.364 60.6749 126.812 54.7707 126.769 48.7281Z" fill="black" stroke="black" stroke-width="1.5"/>
<path d="M66.375 12.3554C66.375 9.00853 62.0648 7.74712 60.1664 10.5217C42.75 35.979 67.5 37.1251 67.5 49.5C67.5 54.5105 63.4064 58.5647 58.3805 58.4986C53.4347 58.4353 49.5 54.3122 49.5 49.3664V37.3416C49.5 34.2901 45.7777 32.8093 43.6739 35.0213C39.9094 38.9757 36 45.7496 36 54C36 68.888 48.112 81 63 81C77.888 81 90 68.888 90 54C90 30.053 66.375 26.8594 66.375 12.3554V12.3554Z" fill="black"/>
<path d="M195.493 36.63C201.583 36.63 206.397 38.66 209.935 42.72C213.531 46.722 215.329 52.232 215.329 59.25C215.329 66.268 213.531 71.807 209.935 75.867C206.397 79.869 201.583 81.87 195.493 81.87C192.129 81.87 189.113 81.116 186.445 79.608C183.835 78.042 181.892 75.983 180.616 73.431L180.181 81H174.091V17.49H181.051V44.286C182.443 41.966 184.386 40.11 186.88 38.718C189.432 37.326 192.303 36.63 195.493 36.63ZM194.71 75.78C198.944 75.78 202.279 74.301 204.715 71.343C207.151 68.327 208.369 64.296 208.369 59.25C208.369 54.204 207.151 50.202 204.715 47.244C202.279 44.228 198.944 42.72 194.71 42.72C190.534 42.72 187.199 44.17 184.705 47.07C182.269 49.97 181.051 53.856 181.051 58.728V59.772C181.051 64.644 182.269 68.53 184.705 71.43C187.199 74.33 190.534 75.78 194.71 75.78ZM232.371 29.148C230.805 29.148 229.529 28.684 228.543 27.756C227.615 26.77 227.151 25.494 227.151 23.928C227.151 22.362 227.615 21.115 228.543 20.187C229.529 19.201 230.805 18.708 232.371 18.708C233.937 18.708 235.184 19.201 236.112 20.187C237.098 21.115 237.591 22.362 237.591 23.928C237.591 25.494 237.098 26.77 236.112 27.756C235.184 28.684 233.937 29.148 232.371 29.148ZM235.851 81H228.891V37.5H235.851V81ZM258.612 69.342C258.612 71.546 258.931 73.083 259.569 73.953C260.265 74.765 261.512 75.171 263.31 75.171C264.528 75.171 265.572 75.084 266.442 74.91C267.37 74.736 268.443 74.417 269.661 73.953L268.53 80.652C266.616 81.464 264.47 81.87 262.092 81.87C258.554 81.87 255.915 80.913 254.175 78.999C252.493 77.085 251.652 74.156 251.652 70.212V17.49H258.612V69.342ZM285.205 69.342C285.205 71.546 285.524 73.083 286.162 73.953C286.858 74.765 288.105 75.171 289.903 75.171C291.121 75.171 292.165 75.084 293.035 74.91C293.963 74.736 295.036 74.417 296.254 73.953L295.123 80.652C293.209 81.464 291.063 81.87 288.685 81.87C285.147 81.87 282.508 80.913 280.768 78.999C279.086 77.085 278.245 74.156 278.245 70.212V17.49H285.205V69.342ZM326.588 36.63C332.678 36.63 337.492 38.66 341.03 42.72C344.626 46.722 346.424 52.232 346.424 59.25C346.424 66.268 344.626 71.807 341.03 75.867C337.492 79.869 332.678 81.87 326.588 81.87C323.224 81.87 320.208 81.116 317.54 79.608C314.93 78.042 312.987 75.983 311.711 73.431L311.276 81H305.186V17.49H312.146V44.286C313.538 41.966 315.481 40.11 317.975 38.718C320.527 37.326 323.398 36.63 326.588 36.63ZM325.805 75.78C330.039 75.78 333.374 74.301 335.81 71.343C338.246 68.327 339.464 64.296 339.464 59.25C339.464 54.204 338.246 50.202 335.81 47.244C333.374 44.228 330.039 42.72 325.805 42.72C321.629 42.72 318.294 44.17 315.8 47.07C313.364 49.97 312.146 53.856 312.146 58.728V59.772C312.146 64.644 313.364 68.53 315.8 71.43C318.294 74.33 321.629 75.78 325.805 75.78ZM378.343 36.63C384.897 36.63 390.03 38.631 393.742 42.633C397.512 46.635 399.397 52.174 399.397 59.25C399.397 66.326 397.512 71.865 393.742 75.867C390.03 79.869 384.897 81.87 378.343 81.87C371.789 81.87 366.627 79.869 362.857 75.867C359.145 71.865 357.289 66.326 357.289 59.25C357.289 52.174 359.145 46.635 362.857 42.633C366.627 38.631 371.789 36.63 378.343 36.63ZM378.343 42.633C373.935 42.633 370.484 44.112 367.99 47.07C365.496 50.028 364.249 54.088 364.249 59.25C364.249 64.412 365.496 68.472 367.99 71.43C370.484 74.388 373.935 75.867 378.343 75.867C382.751 75.867 386.202 74.388 388.696 71.43C391.19 68.472 392.437 64.412 392.437 59.25C392.437 54.088 391.19 50.028 388.696 47.07C386.202 44.112 382.751 42.633 378.343 42.633ZM448.586 75.954C449.746 75.954 450.906 75.809 452.066 75.519L451.631 81C450.007 81.58 448.267 81.87 446.411 81.87C444.149 81.87 442.351 81.377 441.017 80.391C439.741 79.405 438.929 77.752 438.581 75.432C437.247 77.462 435.275 79.057 432.665 80.217C430.113 81.319 427.416 81.87 424.574 81.87C420.282 81.87 416.744 80.884 413.96 78.912C411.176 76.882 409.784 73.982 409.784 70.212C409.784 66.906 411.234 64.064 414.134 61.686C417.034 59.25 421.239 57.568 426.749 56.64L438.32 54.726V52.29C438.32 49.39 437.421 47.07 435.623 45.33C433.825 43.59 431.331 42.72 428.141 42.72C425.241 42.72 422.718 43.416 420.572 44.808C418.484 46.2 416.86 48.259 415.7 50.985L410.567 47.244C411.727 43.996 413.873 41.415 417.005 39.501C420.195 37.587 423.907 36.63 428.141 36.63C433.303 36.63 437.45 37.877 440.582 40.371C443.714 42.865 445.28 46.548 445.28 51.42V72.822C445.28 73.866 445.541 74.649 446.063 75.171C446.585 75.693 447.426 75.954 448.586 75.954ZM424.922 75.78C428.576 75.78 431.708 74.91 434.318 73.17C436.986 71.43 438.32 69.168 438.32 66.384V60.381L428.576 62.208C424.69 62.904 421.79 63.919 419.876 65.253C417.962 66.529 417.005 68.182 417.005 70.212C417.005 72.01 417.701 73.402 419.093 74.388C420.485 75.316 422.428 75.78 424.922 75.78ZM482.726 36.63C484.814 36.63 486.409 36.92 487.511 37.5L486.119 44.286C484.727 43.532 482.9 43.155 480.638 43.155C478.782 43.155 476.955 43.706 475.157 44.808C473.417 45.852 471.967 47.476 470.807 49.68C469.705 51.826 469.154 54.436 469.154 57.51V81H462.194V37.5H467.849L468.806 44.634C471.242 39.298 475.882 36.63 482.726 36.63ZM534.976 17.49V81H528.886L528.451 73.431C527.175 75.983 525.203 78.042 522.535 79.608C519.925 81.116 516.938 81.87 513.574 81.87C507.484 81.87 502.641 79.869 499.045 75.867C495.507 71.807 493.738 66.268 493.738 59.25C493.738 52.232 495.507 46.722 499.045 42.72C502.641 38.66 507.484 36.63 513.574 36.63C516.764 36.63 519.606 37.326 522.1 38.718C524.652 40.11 526.624 41.966 528.016 44.286V17.49H534.976ZM514.357 75.78C518.533 75.78 521.839 74.33 524.275 71.43C526.769 68.53 528.016 64.644 528.016 59.772V58.728C528.016 53.856 526.769 49.97 524.275 47.07C521.839 44.17 518.533 42.72 514.357 42.72C510.123 42.72 506.788 44.228 504.352 47.244C501.916 50.202 500.698 54.204 500.698 59.25C500.698 64.296 501.916 68.327 504.352 71.343C506.788 74.301 510.123 75.78 514.357 75.78ZM554.628 70.56C556.31 70.56 557.673 71.082 558.717 72.126C559.761 73.17 560.283 74.533 560.283 76.215C560.283 77.897 559.761 79.26 558.717 80.304C557.673 81.348 556.31 81.87 554.628 81.87C552.946 81.87 551.583 81.348 550.539 80.304C549.495 79.26 548.973 77.897 548.973 76.215C548.973 74.533 549.495 73.17 550.539 72.126C551.583 71.082 552.946 70.56 554.628 70.56ZM603.905 37.5L585.809 81H578.849L560.753 37.5H568.67L582.416 73.953L596.597 37.5H603.905ZM616.479 29.148C614.913 29.148 613.637 28.684 612.651 27.756C611.723 26.77 611.259 25.494 611.259 23.928C611.259 22.362 611.723 21.115 612.651 20.187C613.637 19.201 614.913 18.708 616.479 18.708C618.045 18.708 619.292 19.201 620.22 20.187C621.206 21.115 621.699 22.362 621.699 23.928C621.699 25.494 621.206 26.77 620.22 27.756C619.292 28.684 618.045 29.148 616.479 29.148ZM619.959 81H612.999V37.5H619.959V81ZM632.977 75.693L655.771 48.984L661.252 43.329L653.509 43.503H633.238V37.5H668.995V42.807L646.201 69.516L640.807 75.171L649.246 74.997H669.691V81H632.977V75.693Z" fill="black"/>
</mask>
<g mask="url(#mask0)">
<rect x="670" y="-20" width="137" height="670" transform="rotate(90 670 -20)" fill="url(#paint0_linear)"/>
</g>
<defs>
<linearGradient id="paint0_linear" x1="670" y1="650" x2="670" y2="-20" gradientUnits="userSpaceOnUse">
<stop stop-color="#EA6192"/>
<stop offset="0.505208" stop-color="#A270F2"/>
<stop offset="1" stop-color="#5F98EF"/>
</linearGradient>
</defs>
</svg>
