<svg width="128" height="72" viewBox="0 0 128 72" fill="none" xmlns="http://www.w3.org/2000/svg">
<mask id="mask0" mask-type="alpha" maskUnits="userSpaceOnUse" x="0" y="0" width="128" height="72">
<path d="M66.375 3.3554C66.375 0.008527 62.0648 -1.25288 60.1664 1.52165C42.75 26.979 67.5 28.1251 67.5 40.5C67.5 45.5105 63.4064 49.5647 58.3805 49.4986C53.4347 49.4353 49.5 45.3122 49.5 40.3664V28.3416C49.5 25.2901 45.7777 23.8093 43.6739 26.0213C39.9094 29.9757 36 36.7496 36 45C36 59.888 48.112 72 63 72C77.888 72 90 59.888 90 45C90 21.053 66.375 17.8594 66.375 3.3554V3.3554Z" fill="black"/>
<path d="M20.6922 15.1017C15.4681 22.3913 12.8838 30.8187 13.2918 39.3526C13.6998 47.8861 17.0797 56.1098 22.9783 63.0225C23.6851 63.8509 24.9678 63.9611 25.8518 63.4046C26.8168 62.7971 27.0615 61.5578 26.3083 60.6723C20.9437 54.3654 17.8957 46.902 17.527 39.1897C17.1583 31.478 19.4838 23.8401 24.2249 17.2019C24.906 16.2483 24.5205 15.0423 23.5284 14.5159C22.6098 14.0283 21.3318 14.2093 20.6922 15.1017ZM4.98169 23.0429C2.35666 28.2321 1.0671 34.2104 1.27091 40.2497C1.47473 46.289 3.16318 52.1292 6.13195 57.0581C6.34483 57.4115 6.68763 57.6616 7.09269 57.731C7.49988 57.8007 7.91114 57.677 8.22531 57.3968C8.82393 56.8629 8.8962 55.95 8.51151 55.3093C5.84852 50.8741 4.32303 45.6025 4.13849 40.1345C3.95395 34.6665 5.11927 29.2651 7.477 24.5885C7.81037 23.9273 7.68889 23.0154 7.03913 22.5269C6.30511 21.975 5.36246 22.2902 4.98169 23.0429ZM114.722 39.3231C114.781 30.7795 111.855 22.4648 106.337 15.3946C105.662 14.5291 104.378 14.4005 103.48 14.9251C102.51 15.4917 102.174 16.7123 102.893 17.6373C107.902 24.0763 110.537 31.6129 110.484 39.3333C110.43 47.0542 107.69 54.6358 102.587 61.1566C101.871 62.0721 102.166 63.3004 103.155 63.868C104.061 64.3879 105.338 64.2254 106.01 63.3689C111.622 56.221 114.663 47.866 114.722 39.3231ZM126.77 39.7284C126.727 33.6858 125.194 27.7651 122.359 22.6876C121.948 21.951 120.993 21.6745 120.282 22.2559C119.653 22.7706 119.569 23.6867 119.929 24.3338C122.476 28.9102 123.861 34.2594 123.9 39.7304C123.939 45.2014 122.63 50.5309 120.15 55.0712C119.792 55.7271 119.901 56.6362 120.521 57.1452C120.847 57.4123 121.263 57.5192 121.667 57.4329C122.069 57.347 122.401 57.0831 122.599 56.7213C125.364 51.6753 126.813 45.771 126.77 39.7284Z" fill="black" stroke="black" stroke-width="1.5"/>
</mask>
<g mask="url(#mask0)">
<rect x="129" y="-29" width="137" height="130" transform="rotate(90 129 -29)" fill="url(#paint0_linear)"/>
</g>
<defs>
<linearGradient id="paint0_linear" x1="129" y1="101" x2="129" y2="-29" gradientUnits="userSpaceOnUse">
<stop stop-color="#EA6192"/>
<stop offset="0.505208" stop-color="#A270F2"/>
<stop offset="1" stop-color="#5F98EF"/>
</linearGradient>
</defs>
</svg>
