<?xml version="1.0" standalone="no"?>
<!DOCTYPE svg PUBLIC "-//W3C//DTD SVG 20010904//EN"
 "http://www.w3.org/TR/2001/REC-SVG-20010904/DTD/svg10.dtd">
<svg version="1.0" xmlns="http://www.w3.org/2000/svg"
 width="128.000000pt" height="128.000000pt" viewBox="0 0 128.000000 128.000000"
 preserveAspectRatio="xMidYMid meet">
<metadata>
Created by potrace 1.11, written by Peter Selinger 2001-2013
</metadata>
<g transform="translate(0.000000,128.000000) scale(0.100000,-0.100000)"
fill="#000000" stroke="none">
<path d="M586 958 c-33 -57 -46 -93 -46 -129 0 -41 13 -63 77 -132 65 -71 73
-120 29 -165 -33 -33 -90 -33 -124 1 -22 23 -26 37 -31 119 -6 86 -8 93 -28
96 -18 3 -29 -7 -53 -45 -39 -62 -53 -116 -47 -179 9 -91 65 -171 151 -217 58
-31 174 -31 232 0 53 28 99 74 127 127 17 32 22 58 22 121 0 103 -19 138 -134
260 -72 75 -89 99 -97 136 -7 34 -14 45 -31 47 -16 2 -27 -7 -47 -40z"/>
<path d="M169 798 c-33 -61 -34 -67 -34 -173 0 -102 2 -114 29 -165 34 -67 64
-100 88 -100 24 0 23 31 -2 63 -80 101 -88 261 -19 373 26 43 25 64 -5 64 -18
0 -30 -13 -57 -62z"/>
<path d="M1025 850 c-4 -6 10 -45 31 -87 35 -68 39 -83 39 -153 0 -69 -4 -85
-38 -154 -39 -77 -42 -106 -12 -106 20 0 72 82 90 144 20 65 19 171 -1 232
-29 89 -89 157 -109 124z"/>
<path d="M1194 777 c-3 -8 2 -30 12 -49 28 -53 31 -171 5 -238 -21 -55 -17
-78 13 -67 46 18 60 239 20 321 -21 43 -41 56 -50 33z"/>
<path d="M42 768 c-35 -44 -43 -214 -13 -288 18 -44 44 -70 57 -57 4 3 -3 36
-15 72 -25 77 -27 143 -6 211 18 61 19 74 1 74 -7 0 -18 -6 -24 -12z"/>
</g>
</svg>
